<?xml version="1.0" encoding="UTF-8" standalone="no"?>
<svg
   xmlns:dc="http://purl.org/dc/elements/1.1/"
   xmlns:cc="http://creativecommons.org/ns#"
   xmlns:rdf="http://www.w3.org/1999/02/22-rdf-syntax-ns#"
   xmlns:svg="http://www.w3.org/2000/svg"
   xmlns="http://www.w3.org/2000/svg"
   xmlns:sodipodi="http://sodipodi.sourceforge.net/DTD/sodipodi-0.dtd"
   xmlns:inkscape="http://www.inkscape.org/namespaces/inkscape"
   viewBox="0 0 108.734 152.65532"
   id="svg2"
   version="1.1"
   inkscape:version="0.48.4 r9939"
   width="100%"
   height="100%"
   sodipodi:docname="HTML5.svg">
  <metadata
     id="metadata30">
    <rdf:RDF>
      <cc:Work
         rdf:about="">
        <dc:format>image/svg+xml</dc:format>
        <dc:type
           rdf:resource="http://purl.org/dc/dcmitype/StillImage" />
      </cc:Work>
    </rdf:RDF>
  </metadata>
  <defs
     id="defs28" />
  <sodipodi:namedview
     pagecolor="#ffffff"
     bordercolor="#666666"
     borderopacity="1"
     objecttolerance="10"
     gridtolerance="10"
     guidetolerance="10"
     inkscape:pageopacity="0"
     inkscape:pageshadow="2"
     inkscape:window-width="1151"
     inkscape:window-height="807"
     id="namedview26"
     showgrid="false"
     fit-margin-top="1"
     fit-margin-left="1"
     fit-margin-bottom="1"
     fit-margin-right="1"
     inkscape:zoom="0.4609375"
     inkscape:cx="67.383948"
     inkscape:cy="56.197694"
     inkscape:window-x="0"
     inkscape:window-y="27"
     inkscape:window-maximized="0"
     inkscape:current-layer="svg2" />
  <title
     id="title4">HTML5 Logo</title>
  <polygon
     points="74.633,100.62 437.367,100.62 404.321,470.819 255.778,512 107.644,470.877 "
     id="polygon6"
     transform="matrix(0.29424868,0,0,0.29424868,-20.960662,1)"
     style="fill:#e44d26" />
  <polygon
     points="404.27,130.894 256,130.894 256,480.523 376.03,447.246 "
     id="polygon8"
     transform="matrix(0.29424868,0,0,0.29424868,-20.960662,1)"
     style="fill:#f16529" />
  <polygon
     points="142.132,176.305 143.219,188.488 154.38,313.627 256,313.627 256,268.217 195.91,268.217 191.76,221.716 256,221.716 256,176.305 255.843,176.305 "
     id="polygon10"
     transform="matrix(0.29424868,0,0,0.29424868,-20.960662,1)"
     style="fill:#ebebeb" />
  <polygon
     points="162.771,407.634 255.791,433.457 256,433.399 256,386.153 255.801,386.206 205.227,372.55 201.994,336.333 177.419,336.333 156.409,336.333 "
     id="polygon12"
     transform="matrix(0.29424868,0,0,0.29424868,-20.960662,1)"
     style="fill:#ebebeb" />
  <path
     d="m 10.930598,1 h 6.79037 v 6.70887 h 6.21159 V 1 h 6.79067 v 20.31611 h -6.79037 v -6.80304 h -6.21159 v 6.80304 h -6.79037 V 1 z"
     id="path14"
     inkscape:connector-curvature="0" />
  <path
     d="m 39.652798,7.73712 h -5.97796 V 1 h 18.74953 v 6.73712 h -5.9806 v 13.57899 h -6.79067 V 7.73712 z"
     id="path16"
     inkscape:connector-curvature="0" />
  <path
     d="m 55.400108,1 h 7.0805 L 66.836078,8.13848 71.187138,1 h 7.08315 v 20.31611 h -6.76242 V 11.24633 l -4.67179,7.22351 h -0.11682 l -4.67502,-7.22351 v 10.06978 h -6.64413 V 1 z"
     id="path18"
     inkscape:connector-curvature="0" />
  <path
     d="m 81.649728,1 h 6.79244 v 13.60077 h 9.54926 v 6.71534 h -16.3417 V 1 z"
     id="path20"
     inkscape:connector-curvature="0" />
  <polygon
     points="348.937,407.634 349.62,399.962 360.291,280.411 361.399,268.217 349.162,268.217 255.843,268.217 255.843,313.627 311.761,313.627 306.49,372.521 255.843,386.191 255.843,433.435 "
     id="polygon22"
     transform="matrix(0.29424868,0,0,0.29424868,-20.960662,1)"
     style="fill:#ffffff" />
  <polygon
     points="365.531,221.716 366.442,211.509 368.511,188.488 369.597,176.305 255.843,176.305 255.843,204.509 255.843,221.605 255.843,221.716 365.385,221.716 365.385,221.716 "
     id="polygon24"
     transform="matrix(0.29424868,0,0,0.29424868,-20.960662,1)"
     style="fill:#ffffff" />
</svg>
