<?xml version="1.0" encoding="UTF-8" standalone="no"?>
<!-- Created with Inkscape (http://www.inkscape.org/) -->

<svg
   xmlns:dc="http://purl.org/dc/elements/1.1/"
   xmlns:cc="http://creativecommons.org/ns#"
   xmlns:rdf="http://www.w3.org/1999/02/22-rdf-syntax-ns#"
   xmlns:svg="http://www.w3.org/2000/svg"
   xmlns="http://www.w3.org/2000/svg"
   xmlns:sodipodi="http://sodipodi.sourceforge.net/DTD/sodipodi-0.dtd"
   xmlns:inkscape="http://www.inkscape.org/namespaces/inkscape"
   id="svg2"
   version="1.1"
   inkscape:version="0.48.4 r9939"
   width="147.64145"
   height="260.49918"
   xml:space="preserve"
   sodipodi:docname="LOGOINN.svg"><metadata
     id="metadata8"><rdf:RDF><cc:Work
         rdf:about=""><dc:format>image/svg+xml</dc:format><dc:type
           rdf:resource="http://purl.org/dc/dcmitype/StillImage" /><dc:title /></cc:Work></rdf:RDF></metadata><defs
     id="defs6"><clipPath
       clipPathUnits="userSpaceOnUse"
       id="clipPath16"><path
         d="M 0,792 612,792 612,0 0,0 0,792 z"
         id="path18"
         inkscape:connector-curvature="0" /></clipPath></defs><sodipodi:namedview
     pagecolor="#ffffff"
     bordercolor="#666666"
     borderopacity="1"
     objecttolerance="10"
     gridtolerance="10"
     guidetolerance="10"
     inkscape:pageopacity="0"
     inkscape:pageshadow="2"
     inkscape:window-width="1440"
     inkscape:window-height="844"
     id="namedview4"
     showgrid="false"
     inkscape:zoom="0.5"
     inkscape:cx="-247.16638"
     inkscape:cy="214.60005"
     inkscape:window-x="0"
     inkscape:window-y="27"
     inkscape:window-maximized="1"
     inkscape:current-layer="g10"
     fit-margin-top="1"
     fit-margin-left="1"
     fit-margin-right="1"
     fit-margin-bottom="1" /><g
     id="g10"
     inkscape:groupmode="layer"
     inkscape:label="LOGOINN"
     transform="matrix(1.25,0,0,-1.25,-297.65313,650.44615)"><g
       id="g12"
       transform="matrix(0.63720028,0,0,0.63720028,79.676598,144.67645)"><g
         id="g14"
         clip-path="url(#clipPath16)"><g
           id="g20"
           transform="translate(343.0244,382.4639)"><path
             d="m 0,0 c 0,0 6.882,21.789 30.392,33.257 23.509,11.469 26.95,13.764 26.95,13.764 L 51.606,20.643 c 0,0 -18.919,-67.669 -51.035,-78.562 0,0 12.618,10.897 -0.571,57.919"
             style="fill:#a7ba2c;fill-opacity:1;fill-rule:nonzero;stroke:none"
             id="path22"
             inkscape:connector-curvature="0" /></g><g
           id="g24"
           transform="translate(284.249,431.2051)"><path
             d="m 0,0 c 0,0 48.74,-20.356 55.336,-46.162 0,0 15.482,-43.295 1.434,-60.498 0,0 -25.805,6.885 -47.883,70.821 L 0,0 z"
             style="fill:#a7ba2c;fill-opacity:1;fill-rule:nonzero;stroke:none"
             id="path26"
             inkscape:connector-curvature="0" /></g><g
           id="g28"
           transform="translate(343.8857,393.3564)"><path
             d="M 0,0 C 0,0 7.452,54.478 65.656,55.911 L 53.614,47.596 c 0,0 -26.953,-4.011 -38.707,-27.523 0,0 22.937,33.256 73.974,22.362 0,0 -31.536,-22.934 -35.838,-32.685 l 6.021,29.531 c 0,0 -26.376,-12.042 -30.965,-13.763 C 28.099,25.518 8.603,12.613 0,0"
             style="fill:#6d941a;fill-opacity:1;fill-rule:nonzero;stroke:none"
             id="path30"
             inkscape:connector-curvature="0" /></g><g
           id="g32"
           transform="translate(323.457,413.0693)"><path
             d="m 0,0 c 0,0 13.762,-12.902 16.343,-20.858 0,0 -2.364,51.823 -63.651,55.909 l 9.032,-8.171 c 0,0 32.04,-6.237 38.276,-26.88"
             style="fill:#6d941a;fill-opacity:1;fill-rule:nonzero;stroke:none"
             id="path34"
             inkscape:connector-curvature="0" /></g><g
           id="g36"
           transform="translate(249.915,436.0786)"><path
             d="m 0,0 c 0,0 47.738,12.042 69.888,-21.074 0,0 -29.461,18.493 -37.633,17.633 0,0 5.161,-27.525 8.601,-35.481 0,0 -25.804,36.126 -40.856,38.922"
             style="fill:#6d941a;fill-opacity:1;fill-rule:nonzero;stroke:none"
             id="path38"
             inkscape:connector-curvature="0" /></g><g
           id="g40"
           transform="translate(307.5459,455.0015)"><path
             d="m 0,0 -3.012,-9.462 c 0,0 20.858,-4.945 37.417,-46.017 0,0 6.451,35.051 36.771,45.372 L 69.456,0 c 0,0 -24.944,0.645 -35.051,-35.697 l -2.796,0 c 0,0 2.579,27.311 -31.609,35.697"
             style="fill:#88a42c;fill-opacity:1;fill-rule:nonzero;stroke:none"
             id="path42"
             inkscape:connector-curvature="0" /></g><g
           id="g44"
           transform="translate(337.4355,521.8779)"><path
             d="m 0,0 c 0,0 -56.985,-7.742 -60.211,-23.439 l 0,-42.792 c 0,0 16.558,-2.581 20.213,-7.097 0,0 11.828,53.115 39.567,53.115 l 7.526,-0.216 c 0,0 28.599,-0.644 39.997,-52.683 0,0 6.882,7.956 21.505,6.666 l 0,43.007 c 0,0 -4.733,18.493 -60.212,23.439 L 0,0 z"
             style="fill:#cc2129;fill-opacity:1;fill-rule:nonzero;stroke:none"
             id="path46"
             inkscape:connector-curvature="0" /></g><g
           id="g48"
           transform="translate(381.0879,549.9404)"><path
             d="m 0,0 c 0,-21.2 -17.187,-38.384 -38.384,-38.384 -21.2,0 -38.384,17.184 -38.384,38.384 0,21.199 17.184,38.384 38.384,38.384 C -17.187,38.384 0,21.199 0,0"
             style="fill:#cc2129;fill-opacity:1;fill-rule:nonzero;stroke:none"
             id="path50"
             inkscape:connector-curvature="0" /></g><g
           id="g52"
           transform="translate(328.5459,491.1279)"><path
             d="m 0,0 11.182,0 0,4.73 C 11.182,4.73 3.44,3.44 0,0"
             style="fill:#f3c008;fill-opacity:1;fill-rule:nonzero;stroke:none"
             id="path54"
             inkscape:connector-curvature="0" /></g><path
           d="m 339.728,483.243 -11.468,0 0,5.304 11.468,0 0,-5.304 z"
           style="fill:#f3c008;fill-opacity:1;fill-rule:nonzero;stroke:none"
           id="path56"
           inkscape:connector-curvature="0" /><path
           d="m 339.728,474.356 -11.468,0 0,5.304 11.468,0 0,-5.304 z"
           style="fill:#f3c008;fill-opacity:1;fill-rule:nonzero;stroke:none"
           id="path58"
           inkscape:connector-curvature="0" /><path
           d="m 339.728,465.47 -11.468,0 0,5.303 11.468,0 0,-5.303 z"
           style="fill:#f3c008;fill-opacity:1;fill-rule:nonzero;stroke:none"
           id="path60"
           inkscape:connector-curvature="0" /><path
           d="m 339.728,456.868 -11.468,0 0,5.304 11.468,0 0,-5.304 z"
           style="fill:#f3c008;fill-opacity:1;fill-rule:nonzero;stroke:none"
           id="path62"
           inkscape:connector-curvature="0" /><path
           d="m 339.728,447.981 -11.468,0 0,5.304 11.468,0 0,-5.304 z"
           style="fill:#f3c008;fill-opacity:1;fill-rule:nonzero;stroke:none"
           id="path64"
           inkscape:connector-curvature="0" /><g
           id="g66"
           transform="translate(332.7031,444.9668)"><path
             d="m 0,0 c 0,0 3.439,-2.867 4.588,-5.878 l 2.436,0 0,5.735 L 0,0 z"
             style="fill:#f3c008;fill-opacity:1;fill-rule:nonzero;stroke:none"
             id="path68"
             inkscape:connector-curvature="0" /></g><g
           id="g70"
           transform="translate(337.1465,436.6533)"><path
             d="m 0,0 c 0,0 1.576,-3.154 1.722,-5.161 l 0.859,0 L 2.581,0 0,0 z"
             style="fill:#f3c008;fill-opacity:1;fill-rule:nonzero;stroke:none"
             id="path72"
             inkscape:connector-curvature="0" /></g><path
           d="m 325.823,465.47 -11.468,0 0,5.303 11.468,0 0,-5.303 z"
           style="fill:#f3c008;fill-opacity:1;fill-rule:nonzero;stroke:none"
           id="path74"
           inkscape:connector-curvature="0" /><path
           d="m 325.823,456.868 -11.468,0 0,5.304 11.468,0 0,-5.304 z"
           style="fill:#f3c008;fill-opacity:1;fill-rule:nonzero;stroke:none"
           id="path76"
           inkscape:connector-curvature="0" /><g
           id="g78"
           transform="translate(325.9658,483.3862)"><path
             d="m 0,0 -6.021,0 c 0,0 3.297,4.014 5.878,5.161 L 0,0 z"
             style="fill:#f3c008;fill-opacity:1;fill-rule:nonzero;stroke:none"
             id="path80"
             inkscape:connector-curvature="0" /></g><g
           id="g82"
           transform="translate(318.9414,480.0903)"><path
             d="m 0,0 c 0,0 -2.15,-1.147 -4.301,-5.878 l 10.896,0 0,5.733 L 0,0 z"
             style="fill:#f3c008;fill-opacity:1;fill-rule:nonzero;stroke:none"
             id="path84"
             inkscape:connector-curvature="0" /></g><g
           id="g86"
           transform="translate(307.9023,456.7217)"><path
             d="m 0,0 4.301,0 0,5.448 -2.006,0 C 2.295,5.448 0.716,3.726 0,0"
             style="fill:#f3c008;fill-opacity:1;fill-rule:nonzero;stroke:none"
             id="path88"
             inkscape:connector-curvature="0" /></g><g
           id="g90"
           transform="translate(311.0186,465.3232)"><path
             d="m 0,0 2.359,0 0,5.305 C 2.359,5.305 0.982,4.323 0,0"
             style="fill:#f3c008;fill-opacity:1;fill-rule:nonzero;stroke:none"
             id="path92"
             inkscape:connector-curvature="0" /></g><g
           id="g94"
           transform="translate(354.3486,491.1279)"><path
             d="m 0,0 -11.183,0 0,4.73 c 0,0 7.742,-1.29 11.183,-4.73"
             style="fill:#f3c008;fill-opacity:1;fill-rule:nonzero;stroke:none"
             id="path96"
             inkscape:connector-curvature="0" /></g><path
           d="m 343.166,483.243 11.465,0 0,5.304 -11.465,0 0,-5.304 z"
           style="fill:#f3c008;fill-opacity:1;fill-rule:nonzero;stroke:none"
           id="path98"
           inkscape:connector-curvature="0" /><path
           d="m 343.166,474.356 11.465,0 0,5.304 -11.465,0 0,-5.304 z"
           style="fill:#f3c008;fill-opacity:1;fill-rule:nonzero;stroke:none"
           id="path100"
           inkscape:connector-curvature="0" /><path
           d="m 343.166,465.47 11.465,0 0,5.303 -11.465,0 0,-5.303 z"
           style="fill:#f3c008;fill-opacity:1;fill-rule:nonzero;stroke:none"
           id="path102"
           inkscape:connector-curvature="0" /><path
           d="m 343.166,456.868 11.465,0 0,5.304 -11.465,0 0,-5.304 z"
           style="fill:#f3c008;fill-opacity:1;fill-rule:nonzero;stroke:none"
           id="path104"
           inkscape:connector-curvature="0" /><path
           d="m 343.166,447.981 11.465,0 0,5.304 -11.465,0 0,-5.304 z"
           style="fill:#f3c008;fill-opacity:1;fill-rule:nonzero;stroke:none"
           id="path106"
           inkscape:connector-curvature="0" /><g
           id="g108"
           transform="translate(350.1895,444.9668)"><path
             d="m 0,0 c 0,0 -3.44,-2.867 -4.586,-5.878 l -2.437,0 0,5.735 L 0,0 z"
             style="fill:#f3c008;fill-opacity:1;fill-rule:nonzero;stroke:none"
             id="path110"
             inkscape:connector-curvature="0" /></g><g
           id="g112"
           transform="translate(345.7471,436.6533)"><path
             d="m 0,0 c 0,0 -1.579,-3.154 -1.721,-5.161 l -0.86,0 0,5.161 L 0,0 z"
             style="fill:#f3c008;fill-opacity:1;fill-rule:nonzero;stroke:none"
             id="path114"
             inkscape:connector-curvature="0" /></g><path
           d="m 357.071,465.47 11.467,0 0,5.303 -11.467,0 0,-5.303 z"
           style="fill:#f3c008;fill-opacity:1;fill-rule:nonzero;stroke:none"
           id="path116"
           inkscape:connector-curvature="0" /><path
           d="m 357.071,456.868 11.467,0 0,5.304 -11.467,0 0,-5.304 z"
           style="fill:#f3c008;fill-opacity:1;fill-rule:nonzero;stroke:none"
           id="path118"
           inkscape:connector-curvature="0" /><g
           id="g120"
           transform="translate(356.9297,483.3862)"><path
             d="m 0,0 6.021,0 c 0,0 -3.3,4.014 -5.879,5.161 L 0,0 z"
             style="fill:#f3c008;fill-opacity:1;fill-rule:nonzero;stroke:none"
             id="path122"
             inkscape:connector-curvature="0" /></g><g
           id="g124"
           transform="translate(363.9512,480.0903)"><path
             d="m 0,0 c 0,0 2.151,-1.147 4.301,-5.878 l -10.893,0 0,5.733 L 0,0 z"
             style="fill:#f3c008;fill-opacity:1;fill-rule:nonzero;stroke:none"
             id="path126"
             inkscape:connector-curvature="0" /></g><g
           id="g128"
           transform="translate(374.9922,456.7217)"><path
             d="m 0,0 -4.3,0 0,5.448 2.001,0 c 0,0 1.58,-1.722 2.299,-5.448"
             style="fill:#f3c008;fill-opacity:1;fill-rule:nonzero;stroke:none"
             id="path130"
             inkscape:connector-curvature="0" /></g><g
           id="g132"
           transform="translate(371.874,465.3232)"><path
             d="m 0,0 -2.357,0 0,5.305 C -2.357,5.305 -0.98,4.323 0,0"
             style="fill:#f3c008;fill-opacity:1;fill-rule:nonzero;stroke:none"
             id="path134"
             inkscape:connector-curvature="0" /></g><path
           d="m 276.26,316.514 14.835,0 0,-52.733 -14.835,0 0,52.733 z"
           style="fill:#6d941a;fill-opacity:1;fill-rule:nonzero;stroke:none"
           id="path136"
           inkscape:connector-curvature="0" /><g
           id="g138"
           transform="translate(301.8145,316.5137)"><path
             d="m 0,0 13.823,0 18.039,-29.174 0,29.174 13.952,0 0,-52.733 -13.952,0 -17.941,28.956 0,-28.956 L 0,-52.733 0,0 z"
             style="fill:#6d941a;fill-opacity:1;fill-rule:nonzero;stroke:none"
             id="path140"
             inkscape:connector-curvature="0" /></g><g
           id="g142"
           transform="translate(357.5635,316.5137)"><path
             d="m 0,0 13.823,0 18.04,-29.174 0,29.174 13.953,0 0,-52.733 -13.953,0 -17.942,28.956 0,-28.956 L 0,-52.733 0,0 z"
             style="fill:#6d941a;fill-opacity:1;fill-rule:nonzero;stroke:none"
             id="path144"
             inkscape:connector-curvature="0" /></g></g></g></g><g
     inkscape:groupmode="layer"
     id="layer1"
     inkscape:label="Layer"
     transform="translate(-297.65313,-339.55385)"><flowRoot
       xml:space="preserve"
       id="flowRoot3054"
       style="font-size:9px;font-style:normal;font-weight:normal;line-height:125%;letter-spacing:0px;word-spacing:0px;fill:#000000;fill-opacity:1;stroke:none;font-family:Sans"><flowRegion
         id="flowRegion3056"><rect
           id="rect3058"
           width="14"
           height="11.5"
           x="294.125"
           y="401.375" /></flowRegion><flowPara
         id="flowPara3060" /></flowRoot><flowRoot
       xml:space="preserve"
       id="flowRoot3066"
       style="font-size:9px;font-style:normal;font-weight:normal;text-align:center;line-height:125%;letter-spacing:0px;word-spacing:0px;text-anchor:middle;fill:#000000;fill-opacity:1;stroke:none;font-family:Sans"
       transform="matrix(0.00487388,0,0,0.00487388,257.85285,68.70556)"><flowRegion
         id="flowRegion3068"><rect
           id="rect3070"
           width="155"
           height="23"
           x="278"
           y="97"
           style="text-align:center;text-anchor:middle" /></flowRegion><flowPara
         id="flowPara3072">INSTITUTO NACIONAL DE NUTRICIÓN</flowPara></flowRoot><rect
       style="fill:#0000ff;fill-rule:evenodd;stroke:#000000;stroke-width:0.00199315px;stroke-linecap:butt;stroke-linejoin:miter;stroke-opacity:1"
       id="rect3050-9"
       width="0.7972616"
       height="0.3986308"
       x="259.23416"
       y="69.074394" /></g></svg>