<?xml version="1.0" encoding="UTF-8" standalone="no"?>
<!-- Created with Inkscape (http://www.inkscape.org/) -->

<svg
   xmlns:dc="http://purl.org/dc/elements/1.1/"
   xmlns:cc="http://creativecommons.org/ns#"
   xmlns:rdf="http://www.w3.org/1999/02/22-rdf-syntax-ns#"
   xmlns:svg="http://www.w3.org/2000/svg"
   xmlns="http://www.w3.org/2000/svg"
   xmlns:sodipodi="http://sodipodi.sourceforge.net/DTD/sodipodi-0.dtd"
   xmlns:inkscape="http://www.inkscape.org/namespaces/inkscape"
   width="210mm"
   height="297mm"
   id="svg2"
   version="1.1"
   inkscape:version="0.48.3.1 r9886"
   sodipodi:docname="SGI-logo.svg">
  <defs
     id="defs4" />
  <sodipodi:namedview
     id="base"
     pagecolor="#ffffff"
     bordercolor="#666666"
     borderopacity="1.0"
     inkscape:pageopacity="0.0"
     inkscape:pageshadow="2"
     inkscape:zoom="1.4"
     inkscape:cx="489.01318"
     inkscape:cy="634.42615"
     inkscape:document-units="px"
     inkscape:current-layer="layer1"
     showgrid="false"
     inkscape:window-width="1440"
     inkscape:window-height="845"
     inkscape:window-x="0"
     inkscape:window-y="27"
     inkscape:window-maximized="1" />
  <metadata
     id="metadata7">
    <rdf:RDF>
      <cc:Work
         rdf:about="">
        <dc:format>image/svg+xml</dc:format>
        <dc:type
           rdf:resource="http://purl.org/dc/dcmitype/StillImage" />
        <dc:title></dc:title>
      </cc:Work>
    </rdf:RDF>
  </metadata>
  <g
     inkscape:label="Capa 1"
     inkscape:groupmode="layer"
     id="layer1">
    <g
       transform="matrix(380.01683,0,0,324.59905,-37420.782,-99818.836)"
       style="font-size:1px;font-style:normal;font-variant:normal;font-weight:normal;font-stretch:normal;line-height:125%;letter-spacing:0px;word-spacing:0px;fill:#000000;fill-opacity:1;stroke:none;font-family:Ubuntu;-inkscape-font-specification:Ubuntu"
       id="flowRoot2985">
      <path
         d="m 98.8095,309.00743 c 0.101333,0 0.152,-0.0347 0.152,-0.104 0,-0.0213 -0.0047,-0.0393 -0.014,-0.054 -0.0087,-0.0153 -0.02067,-0.0283 -0.036,-0.039 -0.01533,-0.0113 -0.033,-0.021 -0.053,-0.029 -0.01933,-0.008 -0.04,-0.016 -0.062,-0.024 -0.02533,-0.009 -0.04933,-0.0183 -0.072,-0.029 -0.02267,-0.0113 -0.04233,-0.0243 -0.059,-0.039 -0.01667,-0.0153 -0.03,-0.0333 -0.04,-0.054 -0.0093,-0.0207 -0.014,-0.0457 -0.014,-0.075 0,-0.0607 0.02067,-0.108 0.062,-0.142 0.04133,-0.034 0.08891,-0.0629 0.160662,-0.0763 0.122787,-0.005 0.146099,0.0263 0.189135,0.0494 l -0.0034,0.11497 c -0.014,-0.009 -0.05145,-0.0341 -0.07945,-0.0421 -0.02733,-0.009 -0.05933,-0.013 -0.096,-0.013 -0.01867,0 -0.036,0.002 -0.052,0.006 -0.016,0.004 -0.03,0.01 -0.042,0.018 -0.012,0.008 -0.02167,0.0183 -0.029,0.031 -0.0067,0.012 -0.01,0.0263 -0.01,0.043 0,0.0187 0.0037,0.0343 0.011,0.047 0.0073,0.0127 0.01767,0.024 0.031,0.034 0.01333,0.009 0.02867,0.018 0.046,0.026 0.018,0.008 0.03767,0.016 0.059,0.024 0.03,0.012 0.05733,0.024 0.082,0.036 0.02533,0.012 0.047,0.0263 0.065,0.043 0.01867,0.0167 0.033,0.0367 0.043,0.06 0.01,0.0227 0.015,0.0503 0.015,0.083 -10e-7,0.0607 -0.02233,0.10733 -0.067,0.14 -0.044,0.0327 -0.106334,0.049 -0.187,0.049 -0.02733,0 -0.05267,-0.002 -0.076,-0.006 -0.02267,-0.003 -0.043,-0.007 -0.061,-0.012 -0.018,-0.005 -0.03367,-0.0107 -0.047,-0.016 -0.01267,-0.006 -0.02267,-0.011 -0.03,-0.015 l 0.029,-0.08 c 0.01533,0.009 0.03867,0.0183 0.07,0.029 0.03133,0.0107 0.06967,0.016 0.115,0.016"
         id="path2994"
         inkscape:connector-curvature="0"
         sodipodi:nodetypes="cscccccccssccccssscssccccccccscscccsc" />
      <path
         d="m 99.60275,308.73543 0.097,0 0,0.324 c -0.008,0.003 -0.01967,0.006 -0.035,0.009 -0.01467,0.003 -0.032,0.007 -0.052,0.01 -0.01933,0.003 -0.04067,0.006 -0.064,0.008 -0.02333,0.003 -0.047,0.004 -0.071,0.004 -0.04867,0 -0.093,-0.008 -0.133,-0.024 -0.04,-0.016 -0.07433,-0.0393 -0.103,-0.07 -0.02867,-0.0307 -0.051,-0.0683 -0.067,-0.113 -0.01533,-0.0447 -0.023,-0.096 -0.023,-0.154 0,-0.058 0.0087,-0.10934 0.026,-0.154 0.018,-0.0453 0.042,-0.0833 0.072,-0.114 0.03,-0.0307 0.065,-0.054 0.105,-0.07 0.04067,-0.016 0.084,-0.024 0.13,-0.024 0.03133,0 0.059,0.002 0.083,0.006 0.02467,0.004 0.04567,0.009 0.063,0.014 0.01733,0.005 0.03133,0.0107 0.042,0.016 0.01133,0.005 0.019,0.009 0.023,0.012 l -9.26e-4,0.0942 c -0.01933,-0.0127 -0.07507,-0.0362 -0.107074,-0.0442 -0.032,-0.009 -0.06467,-0.013 -0.098,-0.013 -0.03533,0 -0.06767,0.006 -0.097,0.019 -0.02867,0.0127 -0.05333,0.031 -0.074,0.055 -0.02,0.024 -0.03567,0.0533 -0.047,0.088 -0.01133,0.034 -0.017,0.0723 -0.017,0.115 0,0.0413 0.0047,0.079 0.014,0.113 0.01,0.034 0.02467,0.0633 0.044,0.088 0.02,0.024 0.04433,0.0427 0.073,0.056 0.02933,0.0133 0.06367,0.02 0.103,0.02 0.028,0 0.05167,-0.001 0.071,-0.004 0.02,-0.003 0.03433,-0.006 0.043,-0.009 l -0.164807,-0.25489"
         id="path2996"
         inkscape:connector-curvature="0"
         sodipodi:nodetypes="ccccccssscscscscsccccscccscccsccc" />
      <path
         d="m 99.987863,308.44479 2.39e-4,0.63531 -0.097,0 -0.0019,-0.47955"
         id="path2998"
         inkscape:connector-curvature="0"
         sodipodi:nodetypes="cccc" />
    </g>
    <path
       sodipodi:type="star"
       style="fill:#ff0000;fill-opacity:1;fill-rule:nonzero;stroke:none"
       id="path3000"
       sodipodi:sides="5"
       sodipodi:cx="219.28571"
       sodipodi:cy="286.64789"
       sodipodi:r1="73.768806"
       sodipodi:r2="36.884403"
       sodipodi:arg1="0.75800775"
       sodipodi:arg2="1.3863263"
       inkscape:flatsided="false"
       inkscape:rounded="0"
       inkscape:randomized="0"
       d="m 272.85713,337.36217 -46.80588,-14.45567 -38.44321,30.36242 -0.71565,-48.98209 -40.75599,-27.17916 46.36359,-15.81693 13.25463,-47.16007 29.36992,39.2067 48.9478,-1.96736 -28.21198,40.04799 z"
       inkscape:transform-center-x="0.36454938"
       inkscape:transform-center-y="-2.8665055"
       transform="matrix(0.49865934,0.0716342,-0.07677749,0.42307447,465.29412,135.19765)" />
    <flowRoot
       xml:space="preserve"
       id="flowRoot3032"
       style="font-size:16px;font-style:normal;font-variant:normal;font-weight:normal;font-stretch:normal;line-height:125%;letter-spacing:0px;word-spacing:0px;fill:#000000;fill-opacity:1;stroke:none;font-family:Ubuntu;-inkscape-font-specification:Ubuntu"><flowRegion
         id="flowRegion3034"><rect
           id="rect3036"
           width="389.91888"
           height="28.284271"
           x="255.56859"
           y="527.08289"
           style="font-size:16px" /></flowRegion><flowPara
         id="flowPara3038" /></flowRoot>    <flowRoot
       xml:space="preserve"
       id="flowRoot3040"
       style="font-size:13px;font-style:normal;font-variant:normal;font-weight:normal;font-stretch:normal;line-height:125%;letter-spacing:0px;word-spacing:0px;fill:#000000;fill-opacity:1;stroke:none;font-family:Ubuntu;-inkscape-font-specification:Ubuntu"><flowRegion
         id="flowRegion3042"><rect
           id="rect3044"
           width="540.43164"
           height="70.710678"
           x="181.82745"
           y="556.37726"
           style="font-size:13px" /></flowRegion><flowPara
         id="flowPara3046" /></flowRoot>  </g>
</svg>
